<svg
  width="35"
  height="40"
  viewBox="0 0 35 40"
  fill="none"
  xmlns="http://www.w3.org/2000/svg"
>
<path
    fill-rule="evenodd"
    clip-rule="evenodd"
    d="M30.9 0C33.16 0 35 1.84 35 4.12V40L30.7 36.2L28.28 33.96L25.72 31.58L26.78 35.28H4.1C1.84 35.28 0 33.44 0 31.16V4.12C0 1.84 1.84 0 4.1 0H30.9V0ZM23.18 26.12C27.6 25.98 29.3 23.08 29.3 23.08C29.3 16.64 26.42 11.42 26.42 11.42C23.54 9.26 20.8 9.32 20.8 9.32L20.52 9.64C23.92 10.68 25.5 12.18 25.5 12.18C23.42 11.04 21.38 10.48 19.48 10.26C18.04 10.1 16.66 10.14 15.44 10.3L15.1 10.34C14.4 10.4 12.7 10.66 10.56 11.6C9.82 11.94 9.38 12.18 9.38 12.18C9.38 12.18 11.04 10.6 14.64 9.56L14.44 9.32C14.44 9.32 11.7 9.26 8.82 11.42C8.82 11.42 5.94 16.64 5.94 23.08C5.94 23.08 7.62 25.98 12.04 26.12C12.04 26.12 12.78 25.22 13.38 24.46C10.84 23.7 9.88 22.1 9.88 22.1L10.44 22.44L10.52 22.5L10.5983 22.545L10.6217 22.555L10.7 22.6C11.2 22.88 11.7 23.1 12.16 23.28C12.98 23.6 13.96 23.92 15.1 24.14C16.6 24.42 18.36 24.52 20.28 24.16C21.22 24 22.18 23.72 23.18 23.3C23.88 23.04 24.66 22.66 25.48 22.12C25.48 22.12 24.48 23.76 21.86 24.5C22.46 25.26 23.18 26.12 23.18 26.12ZM13.88 16.78C12.74 16.78 11.84 17.78 11.84 19C11.84 20.22 12.76 21.22 13.88 21.22C15.02 21.22 15.92 20.22 15.92 19C15.94 17.78 15.02 16.78 13.88 16.78ZM21.18 16.78C20.04 16.78 19.14 17.78 19.14 19C19.14 20.22 20.06 21.22 21.18 21.22C22.32 21.22 23.22 20.22 23.22 19C23.22 17.78 22.32 16.78 21.18 16.78Z"
    fill="white"
  />
</svg>
