<svg
  width="40"
  height="34"
  viewBox="0 0 40 34"
  fill="none"
  xmlns="http://www.w3.org/2000/svg"
>
<path
    d="M40 4.48481C38.5283 5.13814 36.9467 5.57814 35.2867 5.77647C36.9817 4.76147 38.2833 3.15314 38.895 1.23647C37.31 2.17647 35.5533 2.85981 33.6833 3.22814C32.1883 1.63314 30.0533 0.636475 27.6933 0.636475C22.395 0.636475 18.5017 5.57981 19.6983 10.7115C12.88 10.3698 6.83333 7.10314 2.785 2.13814C0.635 5.82647 1.67 10.6515 5.32333 13.0948C3.98 13.0515 2.71333 12.6831 1.60833 12.0681C1.51833 15.8698 4.24333 19.4265 8.19 20.2181C7.035 20.5315 5.77 20.6048 4.48333 20.3581C5.52667 23.6181 8.55667 25.9898 12.15 26.0565C8.7 28.7615 4.35333 29.9698 0 29.4565C3.63167 31.7848 7.94667 33.1431 12.58 33.1431C27.8167 33.1431 36.425 20.2748 35.905 8.73314C37.5083 7.57481 38.9 6.12981 40 4.48481Z"
    fill="white"
  />
</svg>
